<svg id="visual" viewBox="0 0 900 600" width="900" height="600" xmlns="http://www.w3.org/2000/svg" xmlns:xlink="http://www.w3.org/1999/xlink" version="1.1"><path d="M0 103L30 99C60 95 120 87 180 89C240 91 300 103 360 107C420 111 480 107 540 105C600 103 660 103 720 104C780 105 840 107 870 108L900 109L900 0L870 0C840 0 780 0 720 0C660 0 600 0 540 0C480 0 420 0 360 0C300 0 240 0 180 0C120 0 60 0 30 0L0 0Z" fill="#947ab3"></path><path d="M0 253L30 262C60 271 120 289 180 300C240 311 300 315 360 310C420 305 480 291 540 277C600 263 660 249 720 260C780 271 840 307 870 325L900 343L900 107L870 106C840 105 780 103 720 102C660 101 600 101 540 103C480 105 420 109 360 105C300 101 240 89 180 87C120 85 60 93 30 97L0 101Z" fill="#a38bc1"></path><path d="M0 433L30 429C60 425 120 417 180 423C240 429 300 449 360 457C420 465 480 461 540 447C600 433 660 409 720 412C780 415 840 445 870 460L900 475L900 341L870 323C840 305 780 269 720 258C660 247 600 261 540 275C480 289 420 303 360 308C300 313 240 309 180 298C120 287 60 269 30 260L0 251Z" fill="#b39cd0"></path><path d="M0 529L30 532C60 535 120 541 180 542C240 543 300 539 360 537C420 535 480 535 540 532C600 529 660 523 720 527C780 531 840 545 870 552L900 559L900 473L870 458C840 443 780 413 720 410C660 407 600 431 540 445C480 459 420 463 360 455C300 447 240 427 180 421C120 415 60 423 30 427L0 431Z" fill="#beabd8"></path><path d="M0 601L30 601C60 601 120 601 180 601C240 601 300 601 360 601C420 601 480 601 540 601C600 601 660 601 720 601C780 601 840 601 870 601L900 601L900 557L870 550C840 543 780 529 720 525C660 521 600 527 540 530C480 533 420 533 360 535C300 537 240 541 180 540C120 539 60 533 30 530L0 527Z" fill="#cabbdf"></path></svg>